<?xml version="1.0" encoding="UTF-8"?>
<svg xmlns="http://www.w3.org/2000/svg" width="1188" height="680" font-family="'Helvetica Neue', Arial, sans-serif">
<style>
  .hdr-wb  { fill: #3a7bd5; }
  .hdr-lb  { fill: #d97706; }
  .hdr-gf  { fill: #7c3aed; }
  .hdr-txt { fill: #fff; font-size: 10px; font-weight: bold; letter-spacing: 0.6px; }
  .p-row   { fill: #ffffff; }
  .p-win   { fill: #dcfce7; }
  .p-lose  { fill: #fee2e2; }
  .p-tbd   { fill: #f1f5f9; }
  .p-txt   { fill: #1e293b; font-size: 11px; }
  .p-gray  { fill: #94a3b8; font-size: 11px; font-style: italic; }
  .win-chk { fill: #16a34a; font-size: 11px; }
  .wire    { fill: none; stroke: #94a3b8; stroke-width: 1.5; }
  .box     { fill: none; stroke: #cbd5e1; stroke-width: 1.5; }
  .div     { fill: none; stroke: #e2e8f0; stroke-width: 1; }
  .lbl         { fill: #64748b; font-size: 11px; font-weight: bold; letter-spacing: 0.8px; }
  .lb-drop     { fill: #94a3b8; font-size: 9px; font-style: italic; }
  .lb-drop-hdr { fill: #ffffff99; font-size: 9px; font-style: italic; }
</style>
<path class="wire" d="M 204,82 H 234 V 130 H 264"/>
<path class="wire" d="M 204,178 H 234 V 130 H 264"/>
<path class="wire" d="M 204,274 H 234 V 322 H 264"/>
<path class="wire" d="M 204,370 H 234 V 322 H 264"/>
<path class="wire" d="M 444,130 H 474 V 226 H 504"/>
<path class="wire" d="M 444,322 H 474 V 226 H 504"/>
<path class="wire" d="M 204,524 H 234 V 524 H 264"/>
<path class="wire" d="M 204,620 H 234 V 620 H 264"/>
<path class="wire" d="M 444,524 H 474 V 572 H 504"/>
<path class="wire" d="M 444,620 H 474 V 572 H 504"/>
<path class="wire" d="M 684,572 H 714 V 572 H 744"/>
<path class="wire" d="M 684,226 H 954 V 572 M 924,572 H 954 M 954,399 H 984"/>
<text x="24" y="41" class="lbl">WINNER'S BRACKET</text>
<text x="24" y="483" class="lbl">LOSER'S BRACKET</text>
<text x="984" y="358" class="lbl">GRAND FINALS</text>
<g transform="translate(24,46)">
  <rect class="hdr-wb" width="180" height="20"/>
  <rect class="p-win" y="20" width="180" height="26"/>
  <rect class="p-tbd" y="46" width="180" height="26"/>
  <rect class="box" width="180" height="72"/>
  <line class="div" x1="0" y1="20" x2="180" y2="20"/>
  <line class="div" x1="0" y1="46" x2="180" y2="46"/>
  <text x="8" y="10" dominant-baseline="middle" class="hdr-txt">WB · R1 · M1</text>
  <text x="8" y="33" dominant-baseline="middle" class="p-txt">#1  Step Off My Flowe…</text>
  <text x="172" y="33" text-anchor="end" dominant-baseline="middle" class="win-chk">✓</text>
  <text x="8" y="59" dominant-baseline="middle" class="p-gray">BYE</text>
  <text x="172" y="59" text-anchor="end" dominant-baseline="middle" class="lb-drop">→ LB M1</text>
</g>
<g transform="translate(24,142)">
  <rect class="hdr-wb" width="180" height="20"/>
  <rect class="p-win" y="20" width="180" height="26"/>
  <rect class="p-lose" y="46" width="180" height="26"/>
  <rect class="box" width="180" height="72"/>
  <line class="div" x1="0" y1="20" x2="180" y2="20"/>
  <line class="div" x1="0" y1="46" x2="180" y2="46"/>
  <text x="8" y="10" dominant-baseline="middle" class="hdr-txt">WB · R1 · M2</text>
  <text x="8" y="33" dominant-baseline="middle" class="p-txt">#4  Dalmatian Station</text>
  <text x="172" y="33" text-anchor="end" dominant-baseline="middle" class="win-chk">✓</text>
  <text x="8" y="59" dominant-baseline="middle" class="p-txt">#5  Luigi's Mansion T…</text>
  <text x="172" y="59" text-anchor="end" dominant-baseline="middle" class="lb-drop">→ LB M1</text>
</g>
<g transform="translate(24,238)">
  <rect class="hdr-wb" width="180" height="20"/>
  <rect class="p-win" y="20" width="180" height="26"/>
  <rect class="p-tbd" y="46" width="180" height="26"/>
  <rect class="box" width="180" height="72"/>
  <line class="div" x1="0" y1="20" x2="180" y2="20"/>
  <line class="div" x1="0" y1="46" x2="180" y2="46"/>
  <text x="8" y="10" dominant-baseline="middle" class="hdr-txt">WB · R1 · M3</text>
  <text x="8" y="33" dominant-baseline="middle" class="p-txt">#2  Forever Until Tom…</text>
  <text x="172" y="33" text-anchor="end" dominant-baseline="middle" class="win-chk">✓</text>
  <text x="8" y="59" dominant-baseline="middle" class="p-gray">BYE</text>
  <text x="172" y="59" text-anchor="end" dominant-baseline="middle" class="lb-drop">→ LB M2</text>
</g>
<g transform="translate(24,334)">
  <rect class="hdr-wb" width="180" height="20"/>
  <rect class="p-win" y="20" width="180" height="26"/>
  <rect class="p-tbd" y="46" width="180" height="26"/>
  <rect class="box" width="180" height="72"/>
  <line class="div" x1="0" y1="20" x2="180" y2="20"/>
  <line class="div" x1="0" y1="46" x2="180" y2="46"/>
  <text x="8" y="10" dominant-baseline="middle" class="hdr-txt">WB · R1 · M4</text>
  <text x="8" y="33" dominant-baseline="middle" class="p-txt">#3  Great Job!</text>
  <text x="172" y="33" text-anchor="end" dominant-baseline="middle" class="win-chk">✓</text>
  <text x="8" y="59" dominant-baseline="middle" class="p-gray">BYE</text>
  <text x="172" y="59" text-anchor="end" dominant-baseline="middle" class="lb-drop">→ LB M2</text>
</g>
<g transform="translate(264,94)">
  <rect class="hdr-wb" width="180" height="20"/>
  <rect class="p-lose" y="20" width="180" height="26"/>
  <rect class="p-win" y="46" width="180" height="26"/>
  <rect class="box" width="180" height="72"/>
  <line class="div" x1="0" y1="20" x2="180" y2="20"/>
  <line class="div" x1="0" y1="46" x2="180" y2="46"/>
  <text x="8" y="10" dominant-baseline="middle" class="hdr-txt">WB · R2 · M5</text>
  <text x="8" y="33" dominant-baseline="middle" class="p-txt">#1  Step Off My Flowe…</text>
  <text x="8" y="59" dominant-baseline="middle" class="p-txt">#4  Dalmatian Station</text>
  <text x="172" y="59" text-anchor="end" dominant-baseline="middle" class="win-chk">✓</text>
  <text x="172" y="33" text-anchor="end" dominant-baseline="middle" class="lb-drop">→ LB M4</text>
</g>
<g transform="translate(264,286)">
  <rect class="hdr-wb" width="180" height="20"/>
  <rect class="p-lose" y="20" width="180" height="26"/>
  <rect class="p-win" y="46" width="180" height="26"/>
  <rect class="box" width="180" height="72"/>
  <line class="div" x1="0" y1="20" x2="180" y2="20"/>
  <line class="div" x1="0" y1="46" x2="180" y2="46"/>
  <text x="8" y="10" dominant-baseline="middle" class="hdr-txt">WB · R2 · M6</text>
  <text x="8" y="33" dominant-baseline="middle" class="p-txt">#2  Forever Until Tom…</text>
  <text x="8" y="59" dominant-baseline="middle" class="p-txt">#3  Great Job!</text>
  <text x="172" y="59" text-anchor="end" dominant-baseline="middle" class="win-chk">✓</text>
  <text x="172" y="33" text-anchor="end" dominant-baseline="middle" class="lb-drop">→ LB M3</text>
</g>
<g transform="translate(504,190)">
  <rect class="hdr-wb" width="180" height="20"/>
  <rect class="p-row" y="20" width="180" height="26"/>
  <rect class="p-row" y="46" width="180" height="26"/>
  <rect class="box" width="180" height="72"/>
  <line class="div" x1="0" y1="20" x2="180" y2="20"/>
  <line class="div" x1="0" y1="46" x2="180" y2="46"/>
  <text x="8" y="10" dominant-baseline="middle" class="hdr-txt">WB · R3 · M7</text>
  <text x="8" y="33" dominant-baseline="middle" class="p-txt">#4  Dalmatian Station</text>
  <text x="8" y="59" dominant-baseline="middle" class="p-txt">#3  Great Job!</text>
  <text x="172" y="10" text-anchor="end" dominant-baseline="middle" class="lb-drop-hdr">→ LB M6</text>
</g>
<g transform="translate(24,488)">
  <rect class="hdr-lb" width="180" height="20"/>
  <rect class="p-tbd" y="20" width="180" height="26"/>
  <rect class="p-win" y="46" width="180" height="26"/>
  <rect class="box" width="180" height="72"/>
  <line class="div" x1="0" y1="20" x2="180" y2="20"/>
  <line class="div" x1="0" y1="46" x2="180" y2="46"/>
  <text x="8" y="10" dominant-baseline="middle" class="hdr-txt">LB · R1 · M1</text>
  <text x="8" y="33" dominant-baseline="middle" class="p-gray">BYE</text>
  <text x="8" y="59" dominant-baseline="middle" class="p-txt">#5  Luigi's Mansion T…</text>
  <text x="172" y="59" text-anchor="end" dominant-baseline="middle" class="win-chk">✓</text>
</g>
<g transform="translate(24,584)">
  <rect class="hdr-lb" width="180" height="20"/>
  <rect class="p-tbd" y="20" width="180" height="26"/>
  <rect class="p-tbd" y="46" width="180" height="26"/>
  <rect class="box" width="180" height="72"/>
  <line class="div" x1="0" y1="20" x2="180" y2="20"/>
  <line class="div" x1="0" y1="46" x2="180" y2="46"/>
  <text x="8" y="10" dominant-baseline="middle" class="hdr-txt">LB · R1 · M2</text>
  <text x="8" y="33" dominant-baseline="middle" class="p-gray">BYE</text>
  <text x="8" y="59" dominant-baseline="middle" class="p-gray">BYE</text>
</g>
<g transform="translate(264,488)">
  <rect class="hdr-lb" width="180" height="20"/>
  <rect class="p-win" y="20" width="180" height="26"/>
  <rect class="p-lose" y="46" width="180" height="26"/>
  <rect class="box" width="180" height="72"/>
  <line class="div" x1="0" y1="20" x2="180" y2="20"/>
  <line class="div" x1="0" y1="46" x2="180" y2="46"/>
  <text x="8" y="10" dominant-baseline="middle" class="hdr-txt">LB · R2 · M3</text>
  <text x="8" y="33" dominant-baseline="middle" class="p-txt">#2  Forever Until Tom…</text>
  <text x="172" y="33" text-anchor="end" dominant-baseline="middle" class="win-chk">✓</text>
  <text x="8" y="59" dominant-baseline="middle" class="p-txt">#5  Luigi's Mansion T…</text>
</g>
<g transform="translate(264,584)">
  <rect class="hdr-lb" width="180" height="20"/>
  <rect class="p-win" y="20" width="180" height="26"/>
  <rect class="p-tbd" y="46" width="180" height="26"/>
  <rect class="box" width="180" height="72"/>
  <line class="div" x1="0" y1="20" x2="180" y2="20"/>
  <line class="div" x1="0" y1="46" x2="180" y2="46"/>
  <text x="8" y="10" dominant-baseline="middle" class="hdr-txt">LB · R2 · M4</text>
  <text x="8" y="33" dominant-baseline="middle" class="p-txt">#1  Step Off My Flowe…</text>
  <text x="172" y="33" text-anchor="end" dominant-baseline="middle" class="win-chk">✓</text>
  <text x="8" y="59" dominant-baseline="middle" class="p-gray">BYE</text>
</g>
<g transform="translate(504,536)">
  <rect class="hdr-lb" width="180" height="20"/>
  <rect class="p-lose" y="20" width="180" height="26"/>
  <rect class="p-win" y="46" width="180" height="26"/>
  <rect class="box" width="180" height="72"/>
  <line class="div" x1="0" y1="20" x2="180" y2="20"/>
  <line class="div" x1="0" y1="46" x2="180" y2="46"/>
  <text x="8" y="10" dominant-baseline="middle" class="hdr-txt">LB · R3 · M5</text>
  <text x="8" y="33" dominant-baseline="middle" class="p-txt">#2  Forever Until Tom…</text>
  <text x="8" y="59" dominant-baseline="middle" class="p-txt">#1  Step Off My Flowe…</text>
  <text x="172" y="59" text-anchor="end" dominant-baseline="middle" class="win-chk">✓</text>
</g>
<g transform="translate(744,536)">
  <rect class="hdr-lb" width="180" height="20"/>
  <rect class="p-tbd" y="20" width="180" height="26"/>
  <rect class="p-row" y="46" width="180" height="26"/>
  <rect class="box" width="180" height="72"/>
  <line class="div" x1="0" y1="20" x2="180" y2="20"/>
  <line class="div" x1="0" y1="46" x2="180" y2="46"/>
  <text x="8" y="10" dominant-baseline="middle" class="hdr-txt">LB · R4 · M6</text>
  <text x="8" y="33" dominant-baseline="middle" class="p-gray">Loser of WB M7</text>
  <text x="8" y="59" dominant-baseline="middle" class="p-txt">#1  Step Off My Flowe…</text>
</g>
<g transform="translate(984,363)">
  <rect class="hdr-gf" width="180" height="20"/>
  <rect class="p-tbd" y="20" width="180" height="26"/>
  <rect class="p-tbd" y="46" width="180" height="26"/>
  <rect class="box" width="180" height="72"/>
  <line class="div" x1="0" y1="20" x2="180" y2="20"/>
  <line class="div" x1="0" y1="46" x2="180" y2="46"/>
  <text x="8" y="10" dominant-baseline="middle" class="hdr-txt">GRAND FINALS</text>
  <text x="8" y="33" dominant-baseline="middle" class="p-gray">Winner of WB M7</text>
  <text x="8" y="59" dominant-baseline="middle" class="p-gray">Winner of LB M6</text>
</g>
</svg>
